<?xml version="1.0" standalone="no"?>
<!DOCTYPE svg PUBLIC "-//W3C//DTD SVG 20010904//EN"
 "http://www.w3.org/TR/2001/REC-SVG-20010904/DTD/svg10.dtd">
<svg version="1.0" xmlns="http://www.w3.org/2000/svg"
 width="600.000000pt" height="600.000000pt" viewBox="0 0 600.000000 600.000000"
 preserveAspectRatio="xMidYMid meet">
<g transform="translate(0.000000,600.000000) scale(0.100000,-0.100000)"
fill="#000000" stroke="none">
<path d="M532 5980 c-210 -55 -395 -216 -480 -417 -55 -129 -52 18 -52 -2564
0 -2341 0 -2387 20 -2463 63 -248 268 -453 516 -516 76 -20 123 -20 2464 -20
2332 0 2389 0 2463 19 252 65 453 265 517 517 20 76 20 122 20 2463 0 2080 -2
2394 -15 2449 -53 223 -212 412 -422 500 -129 55 18 52 -2568 51 -2317 0
-2392 -1 -2463 -19z m4458 -252 c0 -42 -72 -341 -121 -501 -256 -833 -681
-1534 -1140 -1879 -86 -65 -238 -158 -256 -158 -9 0 -13 22 -13 78 l0 77 108
71 c174 116 346 290 508 514 210 292 444 763 594 1195 53 155 133 436 155 548
l18 87 73 0 74 0 0 -32z m-861 -111 c90 -59 127 -182 83 -278 -10 -24 -220
-365 -466 -757 l-446 -714 0 -469 c0 -258 2 -469 4 -469 2 0 113 51 247 113
287 134 307 141 365 133 80 -11 172 -76 210 -147 21 -41 276 -1068 276 -1116
1 -22 -5 -63 -12 -90 -27 -95 -147 -183 -250 -183 -89 0 -200 71 -237 152 -11
24 -55 185 -98 358 -43 173 -81 318 -84 322 -3 3 -163 -68 -356 -158 -192 -91
-375 -172 -405 -181 -51 -16 -113 -18 -274 -10 l-40 2 -317 -730 c-174 -401
-328 -749 -342 -772 -52 -87 -166 -129 -267 -100 -30 9 -76 30 -102 46 -92 59
-155 196 -138 303 4 27 178 439 405 962 l399 916 503 0 503 0 0 85 0 85 -500
0 -500 0 0 405 c0 223 -2 405 -5 405 -2 0 -142 -54 -310 -120 -253 -99 -315
-120 -358 -120 -57 0 -118 24 -156 60 -29 29 -549 813 -567 857 -19 45 -17
130 5 178 51 113 178 164 286 116 27 -12 58 -29 69 -39 11 -9 115 -162 233
-339 117 -178 219 -323 225 -323 7 0 191 71 408 157 l395 157 266 4 c236 3
269 5 281 20 8 9 186 292 396 627 209 336 391 620 404 632 65 61 191 70 267
20z m-1261 -439 c105 -39 199 -140 237 -256 27 -83 18 -199 -21 -282 -39 -83
-111 -155 -194 -194 -60 -29 -73 -31 -170 -31 -93 0 -111 3 -163 27 -250 117
-313 446 -122 640 116 118 277 154 433 96z m432 -3963 c0 -486 -3 -890 -6
-899 -9 -23 -159 -23 -168 0 -9 23 -7 1697 2 1711 10 16 154 83 164 77 5 -3 8
-403 8 -889z"/>
</g>
</svg>
